<svg xmlns="http://www.w3.org/2000/svg" xmlns:xlink="http://www.w3.org/1999/xlink" version="1.1" x="0px" y="0px" viewBox="0 0 584.582 744.0999999999999" enable-background="new 0 0 584.582 595.28" xml:space="preserve"><g><path d="M293.932,33.946c-141.9,0-256.935,115.035-256.935,256.935c0,141.899,115.034,256.932,256.935,256.932   c141.899,0,256.935-115.032,256.935-256.932C550.866,148.98,435.831,33.946,293.932,33.946z M314.219,428.846v45.988h-44.186   v-42.843c-30.206-1.347-59.509-9.458-76.643-19.379l13.521-52.753c18.941,10.374,45.541,19.837,74.845,19.837   c25.697,0,43.281-9.915,43.281-27.954c0-17.129-14.424-27.95-47.79-39.218c-48.241-16.233-81.154-38.78-81.154-82.516   c0-39.675,27.952-70.78,76.196-80.254v-42.826h44.181v39.675c30.213,1.353,50.499,7.665,65.381,14.882l-13.078,50.943   c-11.723-4.961-32.462-15.324-64.922-15.324c-29.307,0-38.778,12.62-38.778,25.24c0,14.887,15.781,24.346,54.104,38.78   c53.655,18.934,75.294,43.726,75.294,84.306C394.471,385.557,366.064,419.824,314.219,428.846z"/></g><text x="0" y="610.28" fill="#000000" font-size="5px" font-weight="bold" font-family="'Helvetica Neue', Helvetica, Arial-Unicode, Arial, Sans-serif">Created by Joe Mortell</text><text x="0" y="615.28" fill="#000000" font-size="5px" font-weight="bold" font-family="'Helvetica Neue', Helvetica, Arial-Unicode, Arial, Sans-serif">from the Noun Project</text></svg>