<svg xmlns="http://www.w3.org/2000/svg" xmlns:xlink="http://www.w3.org/1999/xlink" version="1.1" x="0px" y="0px" viewBox="0 0 100 125" enable-background="new 0 0 100 100" xml:space="preserve"><g><path d="M91.202,52.646c-1.131,0.024-2.026-0.88-2.006-2.005c0.024-1.126-0.901-2.042-2.04-2.037   c-1.14,0.006-2.084,1.868-2.127,4.14c-0.041,2.264-0.105,4.138-4.153,4.178c-4.054,0.019-1.81-4.583-1.798-4.579   c1.022-2.043,0.584-5.072-0.985-6.732c-0.84-0.888-1.678-1.779-2.513-2.665c-1.56-1.658-3.325-2.492-3.957-1.865   c-0.627,0.626-0.321,1.958,0.697,2.972c1.017,1.014,1.507,2.462,1.087,3.21c-0.419,0.748-2.435,0.518-4.481-0.497   c-0.29-0.147-0.583-0.291-0.874-0.436c-2.046-1.006-2.397-0.532-0.776,1.064c0.815,0.803,1.633,1.61,2.452,2.42   c1.63,1.614,2.15,4.604,1.21,6.617c-0.135,0.287-0.267,0.573-0.4,0.861c-0.938,2.011-2.177,5.352-2.732,7.418   c-0.066,0.24-0.131,0.479-0.195,0.717c-0.571,2.076-1.874,4.542-2.925,5.464c-1.059,0.93-2.049,0.748-2.258-0.351   c-0.196-1.103-1.183-2.088-2.207-2.206c-1.009-0.124-2.175-1.993-2.482-4.14c-0.177-1.275-0.329-2.551-0.458-3.827   c-0.22-2.161-2.037-4.797-4.149-5.824c-0.427-0.212-0.856-0.422-1.286-0.632c-2.113-1.037-4.819-3.39-5.91-5.204   c-0.157-0.261-0.313-0.523-0.466-0.782c-1.079-1.801,0-3.254,2.279-3.292c1.382-0.014,2.765-0.027,4.148-0.04   c2.281-0.018,5.919-0.532,8.08-1.163c2.164-0.625,3.963-2.782,4.048-4.78c0.077-2-1.551-3.26-3.685-2.789   c-2.136,0.466-4.889,1.784-6.1,2.894c-1.211,1.121-4.049,2.074-6.318,2.158c-2.271,0.075-4.004-1.459-3.698-3.422   c0.29-1.968,2.032-4.626,3.714-5.951c1.684-1.312,4.491-2.507,6.262-2.578c1.786-0.066,3.601-1.788,4.102-3.874   c0.524-2.071,2.639-4.075,4.611-4.383c1.088-0.165,2.179-0.315,3.263-0.455c1.987-0.263,5.216-0.481,7.19-0.482   c1.386-0.008,2.773,0.009,4.161,0.046c1.61,0.035,3.966,0.071,5.77,0.086c-8.22-9.064-20.09-14.758-33.289-14.758   c-12.865,0-24.459,5.418-32.65,14.084c1.898-0.262,3.797-0.444,5.694-0.483c1.976-0.069,5.212,0.106,7.188,0.389   c1.198,0.152,2.395,0.352,3.594,0.595c1.96,0.408,3.821,2.638,4.088,4.776c0.152,1.304,0.298,2.609,0.426,3.916   c0.23,2.145-0.773,4.945-2.249,6.347c-1.995,1.887-4.073,3.92-6.199,6.03c-1.567,1.557-1.326,3.918,0.579,5.202   c1.854,1.251,3.71,2.494,5.566,3.701c1.906,1.253,5.13,3.017,7.158,3.889c0.288,0.127,0.579,0.252,0.867,0.375   c2.033,0.888,3.627,3.132,3.5,5.092c-0.123,1.965-1.191,3.723-2.303,3.888c-1.12,0.146-2.961,1.874-4.096,3.914   c-0.165,0.29-0.325,0.581-0.489,0.873c-1.142,2.038-3.034,4.782-4.181,6.048c-1.15,1.257-1.28,3.078-0.356,3.976   c0.933,0.897,1.543,2.449,1.398,3.522c-0.15,1.07-1.586,1.597-3.266,0.973c-0.24-0.089-0.48-0.18-0.725-0.275   c-1.684-0.651-3.004-3.179-2.874-5.437c0.111-1.774,0.215-3.548,0.311-5.318c0.127-2.254-0.723-4.692-1.885-5.451   c-1.157-0.751-3.023-2.309-4.144-3.446c-1.121-1.135-2.054-3.944-2.06-6.228c-0.001-2.281-0.938-5.085-2.077-6.22   c-1.142-1.136-2.067-2.056-2.067-2.056c-0.002,0.004-0.002-0.009-4.146,0.052c-4.156,0.055-3.974-4.274-3.964-4.281   c0.106-2.183,0.871-5.713,1.675-7.876c0.512-1.385,1.024-2.777,1.535-4.174c0.79-2.188-0.266-3.356-2.365-2.491   c-0.503,0.205-1.013,0.43-1.518,0.641c-3.122,6.12-4.894,13.042-4.894,20.382C5.079,74.886,25.195,95,50.006,95   c24.511,0,44.425-19.636,44.904-44.032C93.747,51.896,92.185,52.625,91.202,52.646z M42.721,32.412   c-0.698,0.876-1.817-0.255-2.211-2.181c-0.173-1.117-0.198-2.24-0.085-3.37c0.257-1.905,2.626-4.192,4.495-4.402   c1.233-0.1,2.464-0.086,3.697,0.035c1.928,0.231,3.804,1.579,3.912,2.415c0.134,0.837-1.539,2.395-3.632,3.469   c-0.293,0.142-0.586,0.285-0.878,0.431C45.942,29.874,43.457,31.562,42.721,32.412z"/></g><text x="0" y="115" fill="#000000" font-size="5px" font-weight="bold" font-family="'Helvetica Neue', Helvetica, Arial-Unicode, Arial, Sans-serif">Created by khaleel</text><text x="0" y="120" fill="#000000" font-size="5px" font-weight="bold" font-family="'Helvetica Neue', Helvetica, Arial-Unicode, Arial, Sans-serif">from the Noun Project</text></svg>