<?xml version="1.0" encoding="utf-8"?>
<!-- Generator: Adobe Illustrator 19.2.1, SVG Export Plug-In . SVG Version: 6.00 Build 0)  -->
<svg version="1.1" id="symbols" xmlns="http://www.w3.org/2000/svg" xmlns:xlink="http://www.w3.org/1999/xlink" x="0px" y="0px"
	 viewBox="0 0 54 61.783" style="enable-background:new 0 0 54 61.783;" xml:space="preserve">
<style type="text/css">
	.st0{fill:#722EA5;}
	.st1{fill:#FFFFFF;}
	.st2{fill:#D60303;}
	.st3{fill:#178CFF;}
	.st4{fill:#0DBC37;}
	.st5{fill:#E6007C;}
	.st6{fill:#F9BC26;}
</style>
<g>
	<path id="SVGID_12_" class="st2" d="M0.843,14.816L26.156,0.202c0.466-0.269,1.222-0.269,1.688,0l25.313,14.614
		C53.622,15.085,54,15.739,54,16.277v29.229c0,0.538-0.378,1.192-0.844,1.461L27.844,61.582c-0.466,0.269-1.222,0.269-1.688,0
		L0.843,46.967C0.377,46.698,0,46.044,0,45.506l0-29.229C0,15.739,0.377,15.085,0.843,14.816z"/>
	<g>
		<path class="st1" d="M33.815,21.392c-4.457,0-6.27,3.233-6.27,3.233s-1.812-3.233-6.27-3.233c-4.261,0-7.592,2.841-7.592,7.543
			c0,0.984,0.243,1.987,0.658,2.989h7.216c1.137,0,1.356,1.093,1.449,1.56c0.031,0.154,0.1,0.455,0.19,0.836l0.891-7.584
			c0.043-0.37,0.35-0.654,0.722-0.669c0.371-0.011,0.7,0.243,0.774,0.608l1.061,5.295l0.381-1.906
			c0.065-0.324,0.332-0.568,0.66-0.604c0.327-0.038,0.642,0.144,0.776,0.446c0.255,0.574,0.663,1.465,0.773,1.649
			c0.212,0.353,0.323,0.467,0.577,0.467h0.424c0.252-0.399,0.695-0.667,1.202-0.667c0.787,0,1.425,0.638,1.425,1.425
			c0,0.787-0.638,1.425-1.425,1.425c-0.507,0-0.95-0.267-1.202-0.667h-0.424c-0.965,0-1.473-0.582-1.739-0.981l-0.685,3.422
			c-0.071,0.354-0.382,0.609-0.743,0.609c-0.361,0-0.672-0.255-0.743-0.609l-0.866-4.321l-0.823,7.004
			c-0.043,0.363-0.339,0.644-0.704,0.668c-0.016,0.001-0.033,0.001-0.049,0.001c-0.345,0-0.65-0.235-0.735-0.574
			c-0.043-0.171-1.049-4.199-1.205-4.975c-0.033-0.165-0.063-0.273-0.085-0.342l-6.335,0c3.528,6.077,12.446,11.659,12.446,11.659
			s13.862-8.67,13.862-16.164C41.408,24.233,38.077,21.392,33.815,21.392z"/>
		<path class="st2" d="M21.52,33.782c0.155,0.776,1.162,4.804,1.205,4.975c0.085,0.339,0.389,0.574,0.735,0.574
			c0.016,0,0.033-0.001,0.049-0.001c0.365-0.023,0.661-0.305,0.704-0.668l0.823-7.004l0.866,4.321
			c0.071,0.354,0.382,0.609,0.743,0.609c0.361,0,0.672-0.255,0.743-0.609l0.685-3.422c0.266,0.399,0.774,0.981,1.739,0.981h0.424
			c0.252,0.4,0.695,0.667,1.202,0.667c0.787,0,1.425-0.638,1.425-1.425c0-0.787-0.638-1.425-1.425-1.425
			c-0.507,0-0.95,0.267-1.202,0.667h-0.424c-0.255,0-0.366-0.114-0.577-0.467c-0.11-0.184-0.518-1.075-0.773-1.649
			c-0.134-0.302-0.449-0.484-0.776-0.446c-0.328,0.036-0.595,0.281-0.66,0.604l-0.381,1.906l-1.061-5.295
			c-0.073-0.366-0.403-0.619-0.774-0.608c-0.372,0.015-0.679,0.299-0.722,0.669l-0.891,7.584c-0.09-0.38-0.159-0.681-0.19-0.836
			c-0.093-0.467-0.312-1.56-1.449-1.56h-7.216c0.21,0.507,0.465,1.013,0.757,1.516l6.335,0
			C21.458,33.509,21.487,33.616,21.52,33.782z"/>
	</g>
</g>
</svg>
