<?xml version="1.0" encoding="utf-8"?>
<!-- Generator: Adobe Illustrator 19.2.1, SVG Export Plug-In . SVG Version: 6.00 Build 0)  -->
<svg version="1.1" id="symbols" xmlns="http://www.w3.org/2000/svg" xmlns:xlink="http://www.w3.org/1999/xlink" x="0px" y="0px"
	 viewBox="0 0 54 61.783" style="enable-background:new 0 0 54 61.783;" xml:space="preserve">
<style type="text/css">
	.st0{fill:#722EA5;}
	.st1{fill:#FFFFFF;}
	.st2{fill:#D60303;}
	.st3{fill:#178CFF;}
	.st4{fill:#0DBC37;}
	.st5{fill:#E6007C;}
	.st6{fill:#F9BC26;}
</style>
<g>
	<path id="SVGID_7_" class="st6" d="M0.843,14.816L26.156,0.202c0.466-0.269,1.222-0.269,1.688,0l25.313,14.614
		C53.622,15.085,54,15.739,54,16.277v29.229c0,0.538-0.378,1.192-0.844,1.461L27.844,61.582c-0.466,0.269-1.222,0.269-1.688,0
		L0.843,46.967C0.377,46.698,0,46.044,0,45.506l0-29.229C0,15.739,0.377,15.085,0.843,14.816z"/>
	<g>
		<g>
			<g>
				<rect x="12.977" y="34.288" class="st1" width="28.046" height="7.107"/>
			</g>
		</g>
		<g>
			<polygon class="st6" points="22.637,18.177 22.018,19.843 17.92,30.864 17.3,32.53 18.967,33.149 32.889,38.326 34.555,38.946 
				35.175,37.28 39.273,26.259 39.892,24.593 38.226,23.973 24.304,18.796 22.637,18.177 			"/>
			<polyline class="st1" points="23.684,20.463 37.607,25.64 33.509,36.66 19.586,31.483 23.684,20.463 			"/>
			<polygon class="st6" points="32.703,27.731 31.908,25.994 29.067,27.295 27.766,24.454 26.029,25.25 27.33,28.091 24.489,29.391 
				25.285,31.128 28.126,29.828 29.426,32.669 31.163,31.873 29.863,29.032 			"/>
		</g>
	</g>
</g>
</svg>
