<?xml version="1.0" encoding="utf-8"?>
<!-- Generator: Adobe Illustrator 19.2.1, SVG Export Plug-In . SVG Version: 6.00 Build 0)  -->
<svg version="1.1" id="symbols" xmlns="http://www.w3.org/2000/svg" xmlns:xlink="http://www.w3.org/1999/xlink" x="0px" y="0px"
	 viewBox="0 0 54 61.783" style="enable-background:new 0 0 54 61.783;" xml:space="preserve">
<style type="text/css">
	.st0{fill:#722EA5;}
	.st1{fill:#FFFFFF;}
	.st2{fill:#D60303;}
	.st3{fill:#178CFF;}
	.st4{fill:#0DBC37;}
	.st5{fill:#E6007C;}
	.st6{fill:#F9BC26;}
</style>
<g>
	<path id="SVGID_9_" class="st0" d="M0.843,14.816L26.156,0.202c0.466-0.269,1.222-0.269,1.688,0l25.313,14.614
		C53.622,15.085,54,15.739,54,16.277v29.229c0,0.538-0.378,1.192-0.844,1.461L27.844,61.582c-0.466,0.269-1.222,0.269-1.688,0
		L0.843,46.967C0.377,46.698,0,46.044,0,45.506l0-29.229C0,15.739,0.377,15.085,0.843,14.816z"/>
	<g>
		<g>
			<path class="st1" d="M36.21,18.713H22.942c-1.76,0-3.187,1.427-3.187,3.187v15.371c0,1.389,0.89,2.567,2.13,3.004v1.93
				c0,0.258,0.209,0.467,0.467,0.467h1.944c0.258,0,0.467-0.209,0.467-0.467v-1.746h9.628v1.746c0,0.258,0.209,0.467,0.467,0.467
				H36.8c0.258,0,0.467-0.209,0.467-0.467v-1.93c1.24-0.436,2.13-1.615,2.13-3.004V21.9C39.397,20.14,37.97,18.713,36.21,18.713z"/>
		</g>
		<path class="st0" d="M35.217,23.061H23.934c-0.528,0-0.956,0.428-0.956,0.956v8.868c0,0.528,0.428,0.956,0.956,0.956h11.283
			c0.528,0,0.956-0.428,0.956-0.956v-8.868C36.174,23.489,35.745,23.061,35.217,23.061L35.217,23.061z"/>
		<g>
			<path class="st0" d="M32.292,35.04H26.86c-0.321,0-0.581,0.26-0.581,0.581v0.991c0,0.321,0.26,0.581,0.581,0.581h5.432
				c0.321,0,0.581-0.26,0.581-0.581v-0.991C32.873,35.3,32.613,35.04,32.292,35.04z"/>
			<circle class="st0" cx="24.171" cy="36.117" r="1.063"/>
			<circle class="st0" cx="34.981" cy="36.117" r="1.063"/>
		</g>
		<g>
			<rect x="15.704" y="27.596" class="st1" width="1.087" height="15.076"/>
			<g>
				<circle class="st0" cx="16.248" cy="28.451" r="1.046"/>
				<path class="st1" d="M16.248,25.905c-1.406,0-2.546,1.14-2.546,2.546s1.14,2.546,2.546,2.546s2.546-1.14,2.546-2.546
					S17.654,25.905,16.248,25.905L16.248,25.905z"/>
			</g>
		</g>
	</g>
</g>
</svg>
