<?xml version="1.0" encoding="utf-8"?>
<!-- Generator: Adobe Illustrator 19.2.1, SVG Export Plug-In . SVG Version: 6.00 Build 0)  -->
<svg version="1.1" id="symbols" xmlns="http://www.w3.org/2000/svg" xmlns:xlink="http://www.w3.org/1999/xlink" x="0px" y="0px"
	 viewBox="0 0 54 61.783" style="enable-background:new 0 0 54 61.783;" xml:space="preserve">
<style type="text/css">
	.st0{fill:#722EA5;}
	.st1{fill:#FFFFFF;}
	.st2{fill:#D60303;}
	.st3{fill:#178CFF;}
	.st4{fill:#0DBC37;}
	.st5{fill:#E6007C;}
	.st6{fill:#F9BC26;}
</style>
<g>
	<path id="SVGID_10_" class="st4" d="M0.843,14.816L26.156,0.202c0.466-0.269,1.222-0.269,1.688,0l25.313,14.614
		C53.622,15.085,54,15.739,54,16.277v29.229c0,0.538-0.378,1.192-0.844,1.461L27.844,61.582c-0.466,0.269-1.222,0.269-1.688,0
		L0.843,46.967C0.377,46.698,0,46.044,0,45.506l0-29.229C0,15.739,0.377,15.085,0.843,14.816z"/>
	<g>
		<path class="st1" d="M34.307,29.978c0.417-0.966,0.651-2.031,0.651-3.15c0-4.395-3.563-7.958-7.958-7.958
			s-7.958,3.563-7.958,7.958c0,1.119,0.233,2.184,0.651,3.15L27,47.871L34.307,29.978z"/>
		<circle class="st4" cx="27" cy="26.828" r="3.852"/>
	</g>
</g>
</svg>
