<?xml version="1.0" encoding="utf-8"?>
<!-- Generator: Adobe Illustrator 19.2.1, SVG Export Plug-In . SVG Version: 6.00 Build 0)  -->
<svg version="1.1" id="symbols" xmlns="http://www.w3.org/2000/svg" xmlns:xlink="http://www.w3.org/1999/xlink" x="0px" y="0px"
	 viewBox="0 0 54 61.783" style="enable-background:new 0 0 54 61.783;" xml:space="preserve">
<style type="text/css">
	.st0{fill:#722EA5;}
	.st1{fill:#FFFFFF;}
	.st2{fill:#D60303;}
	.st3{fill:#178CFF;}
	.st4{fill:#0DBC37;}
	.st5{fill:#E6007C;}
	.st6{fill:#F9BC26;}
</style>
<g>
	<path id="SVGID_11_" class="st3" d="M0.843,14.816L26.156,0.202c0.466-0.269,1.222-0.269,1.688,0l25.313,14.614
		C53.622,15.085,54,15.739,54,16.277v29.229c0,0.538-0.378,1.192-0.844,1.461L27.844,61.582c-0.466,0.269-1.222,0.269-1.688,0
		L0.843,46.967C0.377,46.698,0,46.044,0,45.506l0-29.229C0,15.739,0.377,15.085,0.843,14.816z"/>
	<g>
		<path class="st1" d="M41.224,31.123l-1.535-0.271c-0.7-0.122-1.38,0.347-1.505,1.054c-0.125,0.707,0.347,1.38,1.054,1.505
			l1.535,0.271c0.076,0.013,0.152,0.02,0.227,0.02c0.618,0,1.167-0.444,1.277-1.074C42.403,31.922,41.931,31.248,41.224,31.123z"/>
		<path class="st1" d="M38.287,26.749c0.22,0,0.444-0.056,0.648-0.174l1.35-0.78c0.621-0.359,0.834-1.153,0.475-1.775
			c-0.359-0.621-1.152-0.834-1.774-0.476l-1.35,0.78c-0.621,0.359-0.834,1.153-0.475,1.775
			C37.401,26.517,37.838,26.749,38.287,26.749z"/>
		<path class="st1" d="M32.644,22.309c0.147,0.053,0.297,0.079,0.444,0.079c0.53,0,1.029-0.328,1.221-0.855l0.533-1.465
			c0.245-0.674-0.102-1.42-0.776-1.665s-1.42,0.102-1.665,0.776l-0.533,1.465C31.622,21.319,31.97,22.064,32.644,22.309z"/>
		<path class="st1" d="M25.082,21.533c0.192,0.528,0.69,0.855,1.221,0.855c0.148,0,0.298-0.025,0.444-0.079
			c0.674-0.245,1.022-0.991,0.776-1.665l-0.533-1.465c-0.246-0.674-0.991-1.022-1.665-0.776c-0.674,0.245-1.022,0.991-0.776,1.665
			L25.082,21.533z"/>
		<path class="st1" d="M37.525,30.41c0-4.324-3.505-7.83-7.83-7.83c-1.83,0-3.509,0.633-4.842,1.684
			c-0.95-0.37-1.983-0.574-3.065-0.574c-4.681,0-8.475,3.794-8.475,8.475c0,4.681,3.794,8.475,8.475,8.475v0h8.991
			c3.344,0,6.055-2.711,6.055-6.055c0-0.285-0.027-0.563-0.065-0.837l0,0C37.249,32.734,37.525,31.606,37.525,30.41z"/>
		<path class="st3" d="M30.78,38.042h-8.991c-3.24,0-5.877-2.636-5.877-5.877c0-3.24,2.636-5.877,5.877-5.877
			c2.38,0,4.43,1.425,5.353,3.465c0.333,0.737,0.524,1.552,0.524,2.412c0,0.437-0.052,0.862-0.143,1.272
			c0.413-1.167,1.432-2.045,2.679-2.257c0.188-0.032,0.38-0.052,0.578-0.052c1.906,0,3.457,1.551,3.457,3.457
			C34.236,36.491,32.686,38.042,30.78,38.042z"/>
	</g>
</g>
</svg>
