<?xml version="1.0" encoding="utf-8"?>
<!-- Generator: Adobe Illustrator 19.2.1, SVG Export Plug-In . SVG Version: 6.00 Build 0)  -->
<svg version="1.1" id="symbols" xmlns="http://www.w3.org/2000/svg" xmlns:xlink="http://www.w3.org/1999/xlink" x="0px" y="0px"
	 viewBox="0 0 54 61.783" style="enable-background:new 0 0 54 61.783;" xml:space="preserve">
<style type="text/css">
	.st0{fill:#722EA5;}
	.st1{fill:#FFFFFF;}
	.st2{fill:#D60303;}
	.st3{fill:#178CFF;}
	.st4{fill:#0DBC37;}
	.st5{fill:#E6007C;}
	.st6{fill:#F9BC26;}
</style>
<g>
	<path id="SVGID_8_" class="st5" d="M0.843,14.816L26.156,0.202c0.466-0.269,1.222-0.269,1.688,0l25.313,14.614
		C53.622,15.085,54,15.739,54,16.277v29.229c0,0.538-0.378,1.192-0.844,1.461L27.844,61.582c-0.466,0.269-1.222,0.269-1.688,0
		L0.843,46.967C0.377,46.698,0,46.044,0,45.506l0-29.229C0,15.739,0.377,15.085,0.843,14.816z"/>
	<g>
		<path class="st1" d="M22.014,33.771c0.005-0.002,0.01-0.002,0.015-0.004c0.004-0.002,0.008-0.004,0.013-0.006
			c0.242-0.09,0.46-0.152,0.626-0.182c0.818-0.147,8.066-1.033,11.784-1.481c0.429-0.052,0.752-0.416,0.752-0.848v-7.224
			c0-0.472-0.382-0.854-0.854-0.854H19.165l-0.363-1.02c-0.121-0.34-0.443-0.568-0.805-0.568h-2.524
			c-0.472,0-0.854,0.382-0.854,0.854c0,0.472,0.382,0.854,0.854,0.854h1.921l3.277,9.208c-1.39,0.689-2.945,1.941-2.945,3.766
			c0,0.472,0.382,0.854,0.854,0.854h15.768c0.472,0,0.854-0.382,0.854-0.854c0-0.472-0.382-0.854-0.854-0.854H19.704
			C20.189,34.649,21.229,34.065,22.014,33.771z M33.495,30.493c-0.663,0.08-1.701,0.206-2.881,0.35l-0.155-1.817h3.036V30.493z
			 M33.495,24.88v2.438h-3.181l-0.208-2.438H33.495z M28.917,31.052c-0.86,0.106-1.737,0.215-2.561,0.318l-0.386-2.343h2.775
			L28.917,31.052z M28.392,24.88l0.207,2.438h-2.911l-0.402-2.438H28.392z M24.661,31.584c-1.153,0.148-2.024,0.265-2.295,0.314
			c-0.028,0.005-0.059,0.011-0.089,0.018l-1.028-2.889h2.991L24.661,31.584z M20.641,27.319l-0.868-2.438h3.783l0.402,2.438H20.641z
			"/>
		<circle class="st1" cx="19.341" cy="39.686" r="1.708"/>
		<circle class="st1" cx="33.454" cy="39.686" r="1.708"/>
		<polygon class="st1" points="31.746,18.594 22.259,21.585 32.245,21.585 		"/>
	</g>
</g>
</svg>
