<?xml version="1.0" encoding="utf-8"?>
<!-- Generator: Adobe Illustrator 19.2.1, SVG Export Plug-In . SVG Version: 6.00 Build 0)  -->
<svg version="1.1" id="Layer_1" xmlns="http://www.w3.org/2000/svg" xmlns:xlink="http://www.w3.org/1999/xlink" x="0px" y="0px"
	 viewBox="0 0 198 270" style="enable-background:new 0 0 198 270;" xml:space="preserve">
<style type="text/css">
	.st0{fill:none;}
	.st1{fill:#F5A522;}
	.st2{fill:#F9BC26;}
	.st3{fill:url(#SVGID_1_);}
</style>
<pattern  y="270" width="85.036" height="147.287" patternUnits="userSpaceOnUse" id="SVGID_161_" viewBox="0 -171.835 85.036 147.287" style="overflow:visible;">
	<g>
		<rect y="-171.835" class="st0" width="85.036" height="147.287"/>
		<g>
			<rect y="-171.835" class="st0" width="85.036" height="147.287"/>
			<g>
				<g>
					<path class="st1" d="M42.518-147.287L42.518-147.287L42.518-147.287z"/>
					<polygon class="st1" points="42.518,-192.291 81.493,-169.789 77.95,-167.743 42.518,-188.2 					"/>
					<polygon class="st1" points="42.518,-184.108 74.407,-165.698 70.864,-163.652 42.518,-180.017 					"/>
					<polygon class="st1" points="42.518,-175.926 67.32,-161.606 63.777,-159.561 42.518,-171.835 					"/>
					<polygon class="st1" points="42.518,-167.743 60.234,-157.515 56.691,-155.469 42.518,-163.652 					"/>
					<polygon class="st1" points="42.518,-159.561 53.148,-153.424 49.605,-151.378 42.518,-155.469 					"/>
					<polygon class="st1" points="46.061,-149.332 42.518,-147.287 42.518,-147.287 42.518,-151.378 					"/>
				</g>
				<g>
					<polygon class="st1" points="46.061,-145.241 42.518,-147.287 85.036,-171.834 85.036,-167.743 					"/>
					<polygon class="st1" points="49.604,-143.195 85.036,-163.652 85.036,-159.561 53.148,-141.15 					"/>
					<polygon class="st1" points="56.691,-139.104 85.036,-155.469 85.036,-151.378 60.234,-137.058 					"/>
					<polygon class="st1" points="63.777,-135.013 85.036,-147.287 85.036,-143.195 67.32,-132.967 					"/>
					<polygon class="st1" points="70.863,-130.922 85.036,-139.104 85.036,-135.013 74.407,-128.876 					"/>
					<polygon class="st1" points="77.95,-126.83 85.036,-130.922 85.036,-126.83 81.493,-124.785 					"/>
				</g>
			</g>
			<g>
				<g>
					<path class="st1" d="M42.518-147.287L42.518-147.287L42.518-147.287z"/>
					<polygon class="st1" points="3.543,-124.785 3.543,-169.789 7.086,-167.743 7.086,-126.83 					"/>
					<polygon class="st1" points="10.629,-128.876 10.629,-165.698 14.173,-163.652 14.173,-130.921 					"/>
					<polygon class="st1" points="17.716,-132.967 17.716,-161.606 21.259,-159.561 21.259,-135.013 					"/>
					<polygon class="st1" points="24.802,-137.058 24.802,-157.515 28.345,-155.469 28.345,-139.104 					"/>
					<polygon class="st1" points="31.888,-141.15 31.888,-153.424 35.432,-151.378 35.432,-143.195 					"/>
					<polygon class="st1" points="38.975,-149.332 42.518,-147.287 42.518,-147.287 38.975,-145.241 					"/>
				</g>
				<g>
					<polygon class="st1" points="42.518,-151.378 42.518,-147.287 0,-171.834 3.543,-173.88 					"/>
					<polygon class="st1" points="42.518,-155.469 7.086,-175.926 10.63,-177.971 42.518,-159.561 					"/>
					<polygon class="st1" points="42.518,-163.652 14.173,-180.017 17.716,-182.063 42.518,-167.743 					"/>
				</g>
			</g>
			<g>
				<g>
					<path class="st1" d="M0-122.739L0-122.739L0-122.739z"/>
					<polygon class="st1" points="38.975,-145.241 42.518,-147.287 42.518,-98.191 38.975,-100.237 					"/>
					<polygon class="st1" points="35.432,-143.195 35.432,-102.282 31.889,-104.328 31.889,-141.15 					"/>
					<polygon class="st1" points="28.345,-139.104 28.345,-106.374 24.802,-108.419 24.802,-137.058 					"/>
					<polygon class="st1" points="21.259,-135.013 21.259,-110.465 17.716,-112.511 17.716,-132.967 					"/>
					<polygon class="st1" points="14.173,-130.922 14.173,-114.556 10.63,-116.602 10.63,-128.876 					"/>
					<polygon class="st1" points="7.086,-126.83 7.086,-118.648 3.543,-120.693 3.543,-124.785 					"/>
				</g>
				<g>
					<path class="st1" d="M0-73.643L0-73.643L0-73.643z"/>
					<polygon class="st1" points="0,-118.648 38.975,-96.145 35.432,-94.1 0,-114.556 					"/>
					<polygon class="st1" points="0,-110.465 31.889,-92.054 28.345,-90.009 0,-106.374 					"/>
					<polygon class="st1" points="0,-102.282 24.802,-87.963 21.259,-85.917 0,-98.191 					"/>
					<polygon class="st1" points="0,-94.1 17.716,-83.872 14.173,-81.826 0,-90.009 					"/>
					<polygon class="st1" points="0,-85.917 10.63,-79.78 7.086,-77.735 0,-81.826 					"/>
					<polygon class="st1" points="3.543,-75.689 0,-73.643 0,-73.643 0,-77.735 					"/>
				</g>
				<g>
					<path class="st1" d="M85.036-73.643L85.036-73.643L85.036-73.643z"/>
					<polygon class="st1" points="46.061,-51.141 46.061,-96.145 49.604,-94.1 49.604,-53.187 					"/>
					<polygon class="st1" points="53.148,-55.232 53.148,-92.054 56.691,-90.008 56.691,-57.278 					"/>
					<polygon class="st1" points="60.234,-59.324 60.234,-87.963 63.777,-85.917 63.777,-61.369 					"/>
					<polygon class="st1" points="67.32,-63.415 67.32,-83.872 70.863,-81.826 70.863,-65.461 					"/>
					<polygon class="st1" points="74.406,-67.506 74.406,-79.78 77.95,-77.735 77.95,-69.552 					"/>
					<polygon class="st1" points="81.493,-75.689 85.036,-73.643 85.036,-73.643 81.493,-71.598 					"/>
				</g>
				<g>
					<path class="st1" d="M85.036-122.739L85.036-122.739L85.036-122.739z"/>
					<polygon class="st1" points="85.036,-77.735 85.036,-73.643 42.518,-98.191 46.061,-100.237 					"/>
					<polygon class="st1" points="85.036,-81.826 49.605,-102.282 53.148,-104.328 85.036,-85.917 					"/>
					<polygon class="st1" points="85.036,-90.008 56.691,-106.374 60.234,-108.419 85.036,-94.1 					"/>
					<polygon class="st1" points="85.036,-98.191 63.777,-110.465 67.32,-112.511 85.036,-102.282 					"/>
					<polygon class="st1" points="85.036,-106.374 70.863,-114.556 74.407,-116.602 85.036,-110.465 					"/>
					<polygon class="st1" points="85.036,-114.556 77.95,-118.648 81.493,-120.693 85.036,-118.647 					"/>
				</g>
				<g>
					<path class="st1" d="M42.518-49.096L42.518-49.096L42.518-49.096z"/>
					<polygon class="st1" points="3.543,-71.598 0,-73.643 42.518,-98.191 42.518,-94.1 					"/>
					<polygon class="st1" points="7.086,-69.552 42.518,-90.008 42.518,-85.917 10.629,-67.506 					"/>
					<polygon class="st1" points="14.173,-65.461 42.518,-81.826 42.518,-77.735 17.716,-63.415 					"/>
					<polygon class="st1" points="21.259,-61.369 42.518,-73.643 42.518,-69.552 24.802,-59.324 					"/>
					<polygon class="st1" points="28.345,-57.278 42.518,-65.461 42.518,-61.369 31.888,-55.232 					"/>
					<polygon class="st1" points="35.432,-53.187 42.518,-57.278 42.518,-53.187 38.975,-51.141 					"/>
				</g>
				<g>
					<path class="st1" d="M42.518-147.287L42.518-147.287L42.518-147.287z"/>
					<polygon class="st1" points="81.493,-124.785 42.518,-102.282 42.518,-106.374 77.95,-126.83 					"/>
					<polygon class="st1" points="74.407,-128.876 42.518,-110.465 42.518,-114.556 70.864,-130.922 					"/>
					<polygon class="st1" points="67.32,-132.967 42.518,-118.648 42.518,-122.739 63.777,-135.013 					"/>
					<polygon class="st1" points="60.234,-137.058 42.518,-126.83 42.518,-130.921 56.691,-139.104 					"/>
					<polygon class="st1" points="53.148,-141.15 42.518,-135.013 42.518,-139.104 49.605,-143.195 					"/>
					<polygon class="st1" points="42.518,-143.195 42.518,-147.287 42.518,-147.287 46.061,-145.241 					"/>
				</g>
			</g>
			<g>
				<g>
					<path class="st1" d="M42.518-49.095L42.518-49.095L42.518-49.095z"/>
					<polygon class="st1" points="81.493,-71.598 85.036,-73.643 85.036,-24.548 81.493,-26.593 					"/>
					<polygon class="st1" points="77.95,-69.552 77.95,-28.639 74.407,-30.685 74.407,-67.506 					"/>
					<polygon class="st1" points="70.864,-65.461 70.864,-32.73 67.32,-34.776 67.32,-63.415 					"/>
					<polygon class="st1" points="63.777,-61.369 63.777,-36.822 60.234,-38.867 60.234,-59.324 					"/>
					<polygon class="st1" points="56.691,-57.278 56.691,-40.913 53.148,-42.958 53.148,-55.232 					"/>
					<polygon class="st1" points="49.605,-53.187 49.605,-45.004 46.061,-47.05 46.061,-51.141 					"/>
				</g>
				<g>
					<polygon class="st1" points="42.518,-45.004 81.493,-22.502 77.95,-20.456 42.518,-40.913 					"/>
					<polygon class="st1" points="42.518,-36.822 74.407,-18.411 70.864,-16.365 42.518,-32.73 					"/>
					<polygon class="st1" points="42.518,-28.639 67.32,-14.319 63.777,-12.274 42.518,-24.548 					"/>
				</g>
			</g>
			<g>
				<g>
					<path class="st1" d="M42.518-49.095L42.518-49.095L42.518-49.095z"/>
					<polygon class="st1" points="42.518,-4.091 42.518,0 0,-24.548 3.543,-26.593 					"/>
					<polygon class="st1" points="42.518,-8.182 7.086,-28.639 10.63,-30.685 42.518,-12.274 					"/>
					<polygon class="st1" points="42.518,-16.365 14.173,-32.73 17.716,-34.776 42.518,-20.456 					"/>
					<polygon class="st1" points="42.518,-24.548 21.259,-36.822 24.802,-38.867 42.518,-28.639 					"/>
					<polygon class="st1" points="42.518,-32.73 28.345,-40.913 31.889,-42.958 42.518,-36.821 					"/>
					<polygon class="st1" points="42.518,-40.913 35.432,-45.004 38.975,-47.05 42.518,-45.004 					"/>
				</g>
				<g>
					<polygon class="st1" points="38.975,-51.141 0,-28.639 0,-32.73 35.432,-53.187 					"/>
					<polygon class="st1" points="31.889,-55.232 0,-36.822 0,-40.913 28.345,-57.278 					"/>
					<polygon class="st1" points="24.802,-59.324 0,-45.004 0,-49.095 21.259,-61.369 					"/>
					<polygon class="st1" points="17.716,-63.415 0,-53.187 0,-57.278 14.173,-65.461 					"/>
					<polygon class="st1" points="10.63,-67.506 0,-61.369 0,-65.461 7.086,-69.552 					"/>
					<polygon class="st1" points="0,-69.552 0,-73.643 0,-73.643 3.543,-71.598 					"/>
				</g>
			</g>
		</g>
	</g>
</pattern>
<g id="canvas">
	<rect y="0" class="st2" width="198" height="270"/>
</g>
<g id="patterns">
	<pattern  id="SVGID_1_" xlink:href="#SVGID_161_" patternTransform="matrix(0.4459 0 0 -0.4459 -8962.7021 -5328.7646)">
	</pattern>
	<rect y="0" class="st3" width="198" height="270"/>
</g>
</svg>
