<svg xmlns="http://www.w3.org/2000/svg"
     xmlns:xlink="http://www.w3.org/1999/xlink" 
     version="1.1">
  <defs>
    <polygon id="hexagon" stroke-width="0" 
      points="108,0 216,62.5 216,187.5
              108,250 0,187.5 0,62.5" />
    <g id="product">
      <rect y="18" width="8" height="63"/>
      <rect x="14" y="18" width="8" height="63"/>
      <rect x="27" y="18" width="8" height="63"/>
      <rect x="39" y="18" width="4" height="63"/>
      <rect x="49" y="18" width="4" height="63"/>
      <rect x="63" y="18" width="11" height="63"/>
      <rect x="81" y="18" width="10" height="63"/>
      <rect x="96" y="18" width="4" height="63"/>                    
    </g>
    <g id="transport">
      <path d="M50.321,0.502L50.321,0.502L50.321,0.502L50.321,0.502z"/>
      <path d="M70.267,76.174c5.248-0.854,10.467-6.377,10.467-13.109V13.839c0-6.948-5.789-13.328-13.651-13.328L50.321,0.502   L33.435,0.511c-7.865,0-13.657,6.38-13.657,13.328v49.226c0,6.732,5.224,12.256,10.468,13.109L14.517,100h9.072L34.84,83.344   h15.403h0.014h0.014h15.4L76.923,100H86L70.267,76.174z M41.393,5.58c0-1.209,1.042-2.223,2.243-2.223h6.607h0.014h0.014h6.61   c1.196,0,2.236,1.014,2.236,2.223V9.49c0,1.209-0.983,2.248-2.236,2.248h-6.61h-0.014h-0.014h-6.607   c-1.26,0-2.243-1.039-2.243-2.248V5.58z M33.149,68.994c-3.309,0-5.989-2.707-5.989-6.045c0-3.337,2.681-6.047,5.989-6.047   c3.307,0,5.984,2.71,5.984,6.047C39.134,66.287,36.456,68.994,33.149,68.994z M50.257,37.012h-0.014H33.888   c-3.758,0-6.838-2.605-6.804-6.862v-8.861c0-3.684,2.359-6.896,6.804-6.896h16.355h0.027h16.355c4.441,0,6.801,3.212,6.801,6.896   v8.861c0.037,4.257-3.042,6.862-6.801,6.862H50.271H50.257z M61.241,62.949c0-3.337,2.678-6.047,5.985-6.047   c3.303,0,5.987,2.71,5.987,6.047c0,3.341-2.685,6.045-5.987,6.045C63.919,68.994,61.241,66.287,61.241,62.949z"/>
    </g>
    <g id="geography">
      <path d="M-293.039-548.582c-3.294,0-5.962-2.669-5.962-5.962v-2.003c0-7.554-6.146-14.699-13.699-14.699h-17.206   c-7.554,0-13.699,6.145-13.699,13.699v12.003c0,3.293-2.669,5.962-5.962,5.962c-3.292,0-5.962-2.669-5.962-5.962v-12.003   c0-14.129,11.495-25.623,25.623-25.623h17.206c14.128,0,25.623,12.494,25.623,26.623v2.003   C-287.077-551.251-289.747-548.582-293.039-548.582z"/>
      <path stroke-width="20" stroke-linecap="round" stroke-linejoin="round" stroke-miterlimit="10" d="M-669.54-508.264v-20.134c0-18.213,14.765-32.978,32.978-32.978h28.859c18.213,0,32.978,14.765,32.978,32.978v20.134"/>
      <path d="M52.768,0C33.749,0,18.333,15.417,18.333,34.434c0,5.977,1.524,11.595,4.203,16.494  C22.618,51.3,49.483,97.97,49.483,97.97c0.677,1.171,1.929,1.896,3.284,1.896c1.354-0.002,2.604-0.725,3.283-1.896  c0,0,26.863-46.669,26.946-47.041c2.68-4.898,4.203-10.518,4.203-16.495C87.2,15.417,71.784,0,52.768,0z M52.768,52.776  c-8.55,0-15.48-6.932-15.48-15.48c0-8.549,6.93-15.479,15.48-15.479c8.548,0,15.478,6.93,15.478,15.479  C68.245,45.845,61.315,52.776,52.768,52.776z"/>
    </g>
    <g id="weather" transform="scale(1.2) translate(-3,-7.5)">
      <path d="M48.596,23.305c-7.572,0-14.673,3.362-19.484,9.098c-1.202-0.175-2.428-0.272-3.675-0.272  C11.411,32.13,0,43.541,0,57.565c0,14.026,11.411,25.437,25.436,25.437h30.04c9.358,0,16.972-7.614,16.972-16.973  c0-2.055-0.372-4.062-1.081-5.953c1.747-3.507,2.665-7.386,2.665-11.336C74.031,34.715,62.621,23.305,48.596,23.305z M55.476,75.212  h-30.04c-9.729,0-17.645-7.917-17.645-17.646s7.916-17.644,17.645-17.644c9.266,0,16.998,7.237,17.601,16.475l0.511,7.819  l5.927-5.13c1.667-1.442,3.798-2.236,6.001-2.236c3.055,0,5.901,1.514,7.614,4.05c0.19,0.279,0.356,0.572,0.513,0.869l0.316,0.665  c0.481,1.129,0.737,2.347,0.737,3.596C64.656,71.092,60.537,75.212,55.476,75.212z M60.151,19.454l-6.526-1.667  c0.01-0.048,0.017-0.096,0.029-0.144l2.068-8.102c0.461-1.808,2.3-2.899,4.107-2.437c1.806,0.461,2.896,2.301,2.435,4.106  l-2.07,8.103C60.183,19.361,60.165,19.407,60.151,19.454z M27.073,16.263c-0.951-1.603-0.422-3.674,1.182-4.625  c1.603-0.951,3.675-0.423,4.626,1.181l4.265,7.193c0.025,0.042,0.046,0.086,0.069,0.13l-5.795,3.437  c-0.027-0.041-0.057-0.08-0.081-0.123L27.073,16.263z M89.894,57.799c-0.459,1.807-2.299,2.898-4.104,2.437l-8.104-2.071  c-0.048-0.012-0.095-0.029-0.142-0.042l1.668-6.529c0.048,0.011,0.097,0.017,0.144,0.029l8.104,2.07  C89.267,54.154,90.355,55.991,89.894,57.799z M84.181,30.851l-7.194,4.267c-0.043,0.025-0.087,0.045-0.13,0.068l-3.438-5.794  c0.042-0.027,0.081-0.057,0.123-0.083l7.194-4.265c1.604-0.952,3.676-0.422,4.625,1.18C86.313,27.83,85.784,29.9,84.181,30.851z"/>
    </g>
    <g id="democracy" transform="scale(1.2) translate(-7.8,-12.5)">
      <rect x="11" y="49" width="78" height="34"/>
      <path d="M73,29h-6V17H33v12h-6L11,47h78L73,29z M33,41h-1.353c-2.534,0-4.588-1.466-4.588-4   s2.054-4,4.588-4H33V41z M63,41H37V21h26V41z M68.353,41H67v-8h1.353c2.534,0,4.588,1.466,4.588,4S70.887,41,68.353,41z"/>
    </g>
    <g id="health" transform="scale(1.2) translate(-7.8,-5)">
      <path d="M71.611,14.981c-9.679,0-17.985,5.842-21.614,14.185c-3.628-8.343-11.922-14.185-21.601-14.185  c-13.023,0-23.573,10.553-23.573,23.57c0,7.755,3.807,14.581,9.58,18.876l35.594,27.591l35.601-27.591  c5.78-4.295,9.58-11.121,9.58-18.876C95.178,25.535,84.621,14.981,71.611,14.981z M72.329,53.09H59.881l-3.455-9.343L48.84,67.1  l-7.623-17.074l-0.762,2.175H27.673v-3.558h10.258l2.886-8.241l7.499,16.795l7.892-24.296l6.152,16.631h9.97V53.09z"/>
    </g>
  </defs>
</svg>