<svg xmlns="http://www.w3.org/2000/svg" 
     xmlns:xlink="http://www.w3.org/1999/xlink"
     version="1.1" viewBox="0 0 216 250">
  <g fill="#0DBC37"><polygon stroke-width="0" fill="#0DBC37"
      points="108,0 216,62.5 216,187.5
              108,250 0,187.5 0,62.5" /></g>
  <g transform="translate(58,75.5)" fill="white"><path d="M-293.039-548.582c-3.294,0-5.962-2.669-5.962-5.962v-2.003c0-7.554-6.146-14.699-13.699-14.699h-17.206   c-7.554,0-13.699,6.145-13.699,13.699v12.003c0,3.293-2.669,5.962-5.962,5.962c-3.292,0-5.962-2.669-5.962-5.962v-12.003   c0-14.129,11.495-25.623,25.623-25.623h17.206c14.128,0,25.623,12.494,25.623,26.623v2.003   C-287.077-551.251-289.747-548.582-293.039-548.582z"/>
      <path stroke-width="20" stroke-linecap="round" stroke-linejoin="round" stroke-miterlimit="10" d="M-669.54-508.264v-20.134c0-18.213,14.765-32.978,32.978-32.978h28.859c18.213,0,32.978,14.765,32.978,32.978v20.134"/>
      <path d="M52.768,0C33.749,0,18.333,15.417,18.333,34.434c0,5.977,1.524,11.595,4.203,16.494  C22.618,51.3,49.483,97.97,49.483,97.97c0.677,1.171,1.929,1.896,3.284,1.896c1.354-0.002,2.604-0.725,3.283-1.896  c0,0,26.863-46.669,26.946-47.041c2.68-4.898,4.203-10.518,4.203-16.495C87.2,15.417,71.784,0,52.768,0z M52.768,52.776  c-8.55,0-15.48-6.932-15.48-15.48c0-8.549,6.93-15.479,15.48-15.479c8.548,0,15.478,6.93,15.478,15.479  C68.245,45.845,61.315,52.776,52.768,52.776z"/></g>
</svg>