<svg xmlns="http://www.w3.org/2000/svg" xmlns:xlink="http://www.w3.org/1999/xlink" version="1.1" x="0px" y="0px" viewBox="0 0 100 125" enable-background="new 0 0 100 100" xml:space="preserve"><path fill="#000000" d="M71.611,14.981c-9.679,0-17.985,5.842-21.614,14.185c-3.628-8.343-11.922-14.185-21.601-14.185  c-13.023,0-23.573,10.553-23.573,23.57c0,7.755,3.807,14.581,9.58,18.876l35.594,27.591l35.601-27.591  c5.78-4.295,9.58-11.121,9.58-18.876C95.178,25.535,84.621,14.981,71.611,14.981z M72.329,53.09H59.881l-3.455-9.343L48.84,67.1  l-7.623-17.074l-0.762,2.175H27.673v-3.558h10.258l2.886-8.241l7.499,16.795l7.892-24.296l6.152,16.631h9.97V53.09z"/><text x="0" y="115" fill="#000000" font-size="5px" font-weight="bold" font-family="'Helvetica Neue', Helvetica, Arial-Unicode, Arial, Sans-serif">Created by Christopher Holm-Hansen</text><text x="0" y="120" fill="#000000" font-size="5px" font-weight="bold" font-family="'Helvetica Neue', Helvetica, Arial-Unicode, Arial, Sans-serif">from the Noun Project</text></svg>