<?xml version="1.0" encoding="utf-8"?><!DOCTYPE svg PUBLIC "-//W3C//DTD SVG 1.1//EN" "http://www.w3.org/Graphics/SVG/1.1/DTD/svg11.dtd"><svg version="1.1" xmlns="http://www.w3.org/2000/svg" xmlns:xlink="http://www.w3.org/1999/xlink" x="0px" y="0px" viewBox="0 0 100 122.6825" enable-background="new 0 0 100 98.146" xml:space="preserve"><path fill="#010101" d="M96.295,48.147h-7.406c-2.046,0-3.704-1.658-3.704-3.704c0-2.045,1.658-3.705,3.704-3.705h7.406
	c2.044,0,3.704,1.66,3.704,3.705C100,46.491,98.343,48.147,96.295,48.147z"/><path fill="#010101" d="M81.747,23.492c-1.446,1.446-3.793,1.446-5.237,0c-1.447-1.445-1.447-3.791,0-5.238l5.237-5.238
	c1.445-1.444,3.791-1.444,5.236,0c1.447,1.447,1.447,3.793,0,5.238L81.747,23.492z"/><path fill="#010101" d="M76.285,52.398c0.951-2.474,1.492-5.148,1.492-7.956c0-12.274-9.948-22.222-22.222-22.222
	c-7.146,0-13.483,3.384-17.548,8.619c-2.656-0.783-5.465-1.211-8.377-1.211C13.265,29.629,0,42.896,0,59.257
	c0,2.564,0.359,5.039,0.97,7.408h-0.02c2.84,11.022,11.856,19.558,23.147,21.689c0.08-2.481,0.694-4.948,1.874-7.198
	c-8.045-1.333-14.621-6.985-17.282-14.491H8.7c-0.821-2.318-1.292-4.804-1.292-7.408c0-12.271,9.948-22.221,22.222-22.221
	c10.54,0,19.322,7.358,21.603,17.207c2.314-1.501,5.062-2.392,8.026-2.392c8.183,0,14.815,6.631,14.815,14.813
	s-6.633,14.816-14.815,14.816c-0.911,0-2.159,0-3.598,0c1.154,2.326,1.746,4.865,1.746,7.405c0.714,0,1.358,0,1.852,0
	c12.274,0,22.222-9.948,22.222-22.222C81.481,61.233,79.522,56.258,76.285,52.398z M70.095,47.272
	c-3.208-1.792-6.9-2.828-10.836-2.828c-1.291,0-2.535,0.17-3.766,0.38c-2.488-4.449-6.091-8.184-10.425-10.842
	c2.68-2.689,6.388-4.353,10.486-4.353c8.183,0,14.815,6.631,14.815,14.815C70.371,45.413,70.273,46.357,70.095,47.272z"/><path fill="#010101" d="M55.555,14.813c-2.046,0-3.704-1.658-3.704-3.704V3.702C51.851,1.657,53.509,0,55.555,0
	s3.704,1.657,3.704,3.702v7.407C59.259,13.157,57.601,14.813,55.555,14.813z"/><path fill="#010101" d="M29.365,23.492l-5.238-5.238c-1.446-1.444-1.446-3.791,0-5.238c1.447-1.444,3.792-1.444,5.238,0l5.238,5.238
	c1.446,1.447,1.446,3.793,0,5.238C33.156,24.938,30.813,24.938,29.365,23.492z"/><path fill="#010101" d="M40.74,75.795l6.548,6.548c3.614,3.613,3.614,9.478,0,13.089c-3.616,3.618-9.479,3.618-13.095,0
	c-3.614-3.611-3.614-9.476,0-13.089L40.74,75.795z"/><text x="0" y="113.146" fill="#000000" font-size="5px" font-weight="bold" font-family="'Helvetica Neue', Helvetica, Arial-Unicode, Arial, Sans-serif">Created by Adam Whitcroft</text><text x="0" y="118.146" fill="#000000" font-size="5px" font-weight="bold" font-family="'Helvetica Neue', Helvetica, Arial-Unicode, Arial, Sans-serif">from the Noun Project</text></svg>