<svg xmlns="http://www.w3.org/2000/svg" xmlns:xlink="http://www.w3.org/1999/xlink" version="1.1" x="0px" y="0px" viewBox="0 0 90 112.5" enable-background="new 0 0 90 90" xml:space="preserve"><path fill="#000000" d="M48.596,23.305c-7.572,0-14.673,3.362-19.484,9.098c-1.202-0.175-2.428-0.272-3.675-0.272  C11.411,32.13,0,43.541,0,57.565c0,14.026,11.411,25.437,25.436,25.437h30.04c9.358,0,16.972-7.614,16.972-16.973  c0-2.055-0.372-4.062-1.081-5.953c1.747-3.507,2.665-7.386,2.665-11.336C74.031,34.715,62.621,23.305,48.596,23.305z M55.476,75.212  h-30.04c-9.729,0-17.645-7.917-17.645-17.646s7.916-17.644,17.645-17.644c9.266,0,16.998,7.237,17.601,16.475l0.511,7.819  l5.927-5.13c1.667-1.442,3.798-2.236,6.001-2.236c3.055,0,5.901,1.514,7.614,4.05c0.19,0.279,0.356,0.572,0.513,0.869l0.316,0.665  c0.481,1.129,0.737,2.347,0.737,3.596C64.656,71.092,60.537,75.212,55.476,75.212z M60.151,19.454l-6.526-1.667  c0.01-0.048,0.017-0.096,0.029-0.144l2.068-8.102c0.461-1.808,2.3-2.899,4.107-2.437c1.806,0.461,2.896,2.301,2.435,4.106  l-2.07,8.103C60.183,19.361,60.165,19.407,60.151,19.454z M27.073,16.263c-0.951-1.603-0.422-3.674,1.182-4.625  c1.603-0.951,3.675-0.423,4.626,1.181l4.265,7.193c0.025,0.042,0.046,0.086,0.069,0.13l-5.795,3.437  c-0.027-0.041-0.057-0.08-0.081-0.123L27.073,16.263z M89.894,57.799c-0.459,1.807-2.299,2.898-4.104,2.437l-8.104-2.071  c-0.048-0.012-0.095-0.029-0.142-0.042l1.668-6.529c0.048,0.011,0.097,0.017,0.144,0.029l8.104,2.07  C89.267,54.154,90.355,55.991,89.894,57.799z M84.181,30.851l-7.194,4.267c-0.043,0.025-0.087,0.045-0.13,0.068l-3.438-5.794  c0.042-0.027,0.081-0.057,0.123-0.083l7.194-4.265c1.604-0.952,3.676-0.422,4.625,1.18C86.313,27.83,85.784,29.9,84.181,30.851z"/><text x="0" y="105" fill="#000000" font-size="5px" font-weight="bold" font-family="'Helvetica Neue', Helvetica, Arial-Unicode, Arial, Sans-serif">Created by Timo W</text><text x="0" y="110" fill="#000000" font-size="5px" font-weight="bold" font-family="'Helvetica Neue', Helvetica, Arial-Unicode, Arial, Sans-serif">from the Noun Project</text></svg>