<svg xmlns="http://www.w3.org/2000/svg" 
     xmlns:xlink="http://www.w3.org/1999/xlink"
     version="1.1" viewBox="0 0 216 250">
  <g fill="#722EA5"><polygon stroke-width="0" fill="#722EA5"
      points="108,0 216,62.5 216,187.5
              108,250 0,187.5 0,62.5" /></g>
  <g fill="white" transform="translate(27,31.25) scale(0.75,0.75)"><polygon stroke-width="0" fill="white" transform="translate(27,31.25) scale(0.75,0.75)"
      points="108,0 216,62.5 216,187.5
              108,250 0,187.5 0,62.5" /></g>
  <g fill="#333333" transform="translate(58,75.5)"><path d="M50.321,0.502L50.321,0.502L50.321,0.502L50.321,0.502z"/>
      <path d="M70.267,76.174c5.248-0.854,10.467-6.377,10.467-13.109V13.839c0-6.948-5.789-13.328-13.651-13.328L50.321,0.502   L33.435,0.511c-7.865,0-13.657,6.38-13.657,13.328v49.226c0,6.732,5.224,12.256,10.468,13.109L14.517,100h9.072L34.84,83.344   h15.403h0.014h0.014h15.4L76.923,100H86L70.267,76.174z M41.393,5.58c0-1.209,1.042-2.223,2.243-2.223h6.607h0.014h0.014h6.61   c1.196,0,2.236,1.014,2.236,2.223V9.49c0,1.209-0.983,2.248-2.236,2.248h-6.61h-0.014h-0.014h-6.607   c-1.26,0-2.243-1.039-2.243-2.248V5.58z M33.149,68.994c-3.309,0-5.989-2.707-5.989-6.045c0-3.337,2.681-6.047,5.989-6.047   c3.307,0,5.984,2.71,5.984,6.047C39.134,66.287,36.456,68.994,33.149,68.994z M50.257,37.012h-0.014H33.888   c-3.758,0-6.838-2.605-6.804-6.862v-8.861c0-3.684,2.359-6.896,6.804-6.896h16.355h0.027h16.355c4.441,0,6.801,3.212,6.801,6.896   v8.861c0.037,4.257-3.042,6.862-6.801,6.862H50.271H50.257z M61.241,62.949c0-3.337,2.678-6.047,5.985-6.047   c3.303,0,5.987,2.71,5.987,6.047c0,3.341-2.685,6.045-5.987,6.045C63.919,68.994,61.241,66.287,61.241,62.949z"/>                  
</g>
</svg>